<svg width="18" height="18" viewBox="0 0 18 18" fill="none" xmlns="http://www.w3.org/2000/svg">
<path d="M17 8.83C16.7348 8.83 16.4804 8.93536 16.2929 9.12289C16.1054 9.31043 16 9.56478 16 9.83V15.4C16 15.5591 15.9368 15.7117 15.8243 15.8243C15.7117 15.9368 15.5591 16 15.4 16H2.6C2.44087 16 2.28826 15.9368 2.17574 15.8243C2.06321 15.7117 2 15.5591 2 15.4V2.6C2 2.44087 2.06321 2.28826 2.17574 2.17574C2.28826 2.06321 2.44087 2 2.6 2H12.17C12.4352 2 12.6896 1.89464 12.8771 1.70711C13.0646 1.51957 13.17 1.26522 13.17 1C13.17 0.734784 13.0646 0.48043 12.8771 0.292893C12.6896 0.105357 12.4352 0 12.17 0H2.6C1.91125 0.00263388 1.25146 0.277407 0.764432 0.764432C0.277407 1.25146 0.00263388 1.91125 0 2.6V15.4C0.00263388 16.0888 0.277407 16.7485 0.764432 17.2356C1.25146 17.7226 1.91125 17.9974 2.6 18H15.4C16.0888 17.9974 16.7485 17.7226 17.2356 17.2356C17.7226 16.7485 17.9974 16.0888 18 15.4V9.83C18 9.56478 17.8946 9.31043 17.7071 9.12289C17.5196 8.93536 17.2652 8.83 17 8.83Z" fill="#BC9958"/>
<path d="M7.72045 7.99982C7.53279 7.83105 7.28826 7.73949 7.03592 7.74349C6.78357 7.74748 6.54207 7.84675 6.35985 8.02137C6.17764 8.19599 6.06819 8.43306 6.05346 8.68501C6.03874 8.93695 6.11982 9.18515 6.28045 9.37982L8.50045 11.7098C8.59339 11.8073 8.70508 11.885 8.8288 11.9383C8.95253 11.9916 9.08574 12.0193 9.22045 12.0198C9.35444 12.0206 9.48722 11.9944 9.6109 11.9429C9.73459 11.8914 9.84665 11.8155 9.94045 11.7198L16.7204 4.71982C16.8124 4.62526 16.8848 4.51353 16.9335 4.391C16.9823 4.26847 17.0064 4.13753 17.0045 4.00567C17.0027 3.87382 16.9749 3.74361 16.9227 3.6225C16.8705 3.50139 16.795 3.39174 16.7004 3.29982C16.6059 3.20789 16.4942 3.13549 16.3716 3.08674C16.2491 3.038 16.1182 3.01387 15.9863 3.01572C15.8544 3.01758 15.7242 3.04539 15.6031 3.09757C15.482 3.14974 15.3724 3.22526 15.2804 3.31982L9.23045 9.57982L7.72045 7.99982Z" fill="#BC9958"/>
</svg>
