<svg width="17" height="17" viewBox="0 0 17 17" fill="none" xmlns="http://www.w3.org/2000/svg">
<path d="M13.6684 4.78533C13.6684 4.90693 13.6444 5.02735 13.5979 5.13969C13.5514 5.25204 13.4831 5.35412 13.3972 5.44011C13.3112 5.5261 13.2091 5.5943 13.0967 5.64084C12.9844 5.68738 12.864 5.71133 12.7424 5.71133C12.6208 5.71133 12.5004 5.68738 12.388 5.64084C12.2757 5.5943 12.1736 5.5261 12.0876 5.44011C12.0016 5.35412 11.9334 5.25204 11.8869 5.13969C11.8403 5.02735 11.8164 4.90693 11.8164 4.78533C11.8164 4.53974 11.9139 4.30421 12.0876 4.13055C12.2613 3.95689 12.4968 3.85933 12.7424 3.85933C12.988 3.85933 13.2235 3.95689 13.3972 4.13055C13.5708 4.30421 13.6684 4.53974 13.6684 4.78533ZM16.6084 8.96533V8.97733L16.5554 12.3333C16.5419 13.5436 16.0551 14.7006 15.1993 15.5565C14.3436 16.4125 13.1867 16.8995 11.9764 16.9133L8.6084 16.9653H8.5964L5.2404 16.9123C4.03007 16.8988 2.87311 16.412 2.01714 15.5563C1.16116 14.7005 0.674173 13.5436 0.660398 12.3333L0.608398 8.96533V8.95333L0.661398 5.59733C0.674908 4.387 1.16164 3.23004 2.01743 2.37407C2.87322 1.51809 4.03007 1.0311 5.2404 1.01733L8.6084 0.965332H8.6204L11.9764 1.01833C13.1867 1.03184 14.3437 1.51857 15.1996 2.37436C16.0556 3.23015 16.5426 4.387 16.5564 5.59733L16.6084 8.96533ZM15.1184 8.96533L15.0664 5.62033C15.057 4.79761 14.726 4.01123 14.1443 3.42944C13.5625 2.84766 12.7761 2.51668 11.9534 2.50733L8.6084 2.45533L5.2634 2.50733C4.44068 2.51668 3.6543 2.84766 3.07251 3.42944C2.49073 4.01123 2.15975 4.79761 2.1504 5.62033L2.0984 8.96533L2.1504 12.3103C2.15975 13.133 2.49073 13.9194 3.07251 14.5012C3.6543 15.083 4.44068 15.4139 5.2634 15.4233L8.6084 15.4753L11.9534 15.4233C12.7761 15.4139 13.5625 15.083 14.1443 14.5012C14.726 13.9194 15.057 13.133 15.0664 12.3103L15.1184 8.96533ZM12.7164 8.96533C12.7164 10.0548 12.2836 11.0997 11.5132 11.8701C10.7428 12.6405 9.69791 13.0733 8.6084 13.0733C7.51889 13.0733 6.474 12.6405 5.7036 11.8701C4.9332 11.0997 4.5004 10.0548 4.5004 8.96533C4.5004 7.87582 4.9332 6.83093 5.7036 6.06053C6.474 5.29013 7.51889 4.85733 8.6084 4.85733C9.69791 4.85733 10.7428 5.29013 11.5132 6.06053C12.2836 6.83093 12.7164 7.87582 12.7164 8.96533ZM11.2264 8.96533C11.2264 8.27099 10.9506 7.60509 10.4596 7.11412C9.96863 6.62315 9.30273 6.34733 8.6084 6.34733C7.91406 6.34733 7.24816 6.62315 6.75719 7.11412C6.26622 7.60509 5.9904 8.27099 5.9904 8.96533C5.9904 9.65966 6.26622 10.3255 6.75719 10.8165C7.24816 11.3075 7.91406 11.5833 8.6084 11.5833C9.30273 11.5833 9.96863 11.3075 10.4596 10.8165C10.9506 10.3255 11.2264 9.65966 11.2264 8.96533Z" fill="white"/>
</svg>
