<svg width="36" height="36" viewBox="0 0 36 36" fill="none" xmlns="http://www.w3.org/2000/svg">
<path d="M18.0004 0.359985C8.25875 0.359985 0.360352 8.25838 0.360352 18C0.360352 27.7416 8.25875 35.64 18.0004 35.64C27.742 35.64 35.6404 27.7416 35.6404 18C35.6404 8.25838 27.742 0.359985 18.0004 0.359985ZM28.4259 30.5532C26.7519 30.492 23.2096 29.934 21.6616 26.4636C21.2512 25.542 21.208 24.7788 21.6616 24.2676C22.2016 23.6556 22.8784 22.0104 23.1268 20.6064C23.2276 20.0484 24.5739 19.8576 24.5919 18.4104C25.2543 17.6868 24.5884 16.3836 24.5919 15.48C24.5991 13.2372 24.8404 11.0952 23.8576 9.61919C20.9524 5.25239 15.142 5.29199 12.1396 9.61919C11.218 10.944 11.4016 13.2264 11.4052 15.48C11.4052 16.4052 10.624 17.6436 11.4052 18.4104C11.4052 19.8648 12.6868 19.8144 12.8704 20.6064C13.198 22.032 13.6012 23.5404 14.3356 24.2676C15.052 24.984 14.6596 25.5132 14.3356 26.4636C13.2808 29.5632 9.56555 30.4956 7.84475 30.7656C4.09355 27.7776 1.68515 23.1696 1.68515 18C1.68515 8.98919 8.99315 1.68119 18.004 1.68119C27.0148 1.68119 34.3191 8.98559 34.3191 18C34.3191 23.0472 32.0259 27.5616 28.4259 30.5532Z" fill="black"/>
</svg>
