<svg width="36" height="36" viewBox="0 0 36 36" fill="none" xmlns="http://www.w3.org/2000/svg">
<path d="M18.0001 0.360001C8.25851 0.360001 0.360107 8.2584 0.360107 18C0.360107 27.7416 8.25851 35.64 18.0001 35.64C27.7417 35.64 35.6401 27.7416 35.6401 18C35.6401 8.2584 27.7417 0.360001 18.0001 0.360001ZM28.4257 30.5532C26.7517 30.492 23.2093 29.934 21.6613 26.4636C21.2509 25.542 21.2077 24.7788 21.6613 24.2676C22.2013 23.6556 22.8781 22.0104 23.1265 20.6064C23.2273 20.0484 24.5737 19.8576 24.5917 18.4104C25.2541 17.6868 24.5881 16.3836 24.5917 15.48C24.5989 13.2372 24.8401 11.0952 23.8573 9.6192C20.9521 5.2524 15.1417 5.292 12.1393 9.6192C11.2177 10.944 11.4013 13.2264 11.4049 15.48C11.4049 16.4052 10.6237 17.6436 11.4049 18.4104C11.4049 19.8648 12.6865 19.8144 12.8701 20.6064C13.1977 22.032 13.6009 23.5404 14.3353 24.2676C15.0517 24.984 14.6593 25.5132 14.3353 26.4636C13.2805 29.5632 9.56531 30.4956 7.84451 30.7656C4.09331 27.7776 1.68491 23.1696 1.68491 18C1.68491 8.9892 8.99291 1.6812 18.0037 1.6812C27.0145 1.6812 34.3189 8.9856 34.3189 18C34.3189 23.0472 32.0257 27.5616 28.4257 30.5532Z" fill="black" fill-opacity="0.4"/>
</svg>
